<svg viewBox="0 0 265.72 73.87" xmlns="http://www.w3.org/2000/svg"><g fill="#162e60"><path d="m0 49.89v-5.43l19 10.45-19-5zm70.2-49.89h-70.2v43l23.92 13.22.23.06h.46l3.48-1.16 42.11-20.73zm-70.2 55.38v-4.2l18.51 4.9zm0 3.9v-2.67l18.17.69zm0 5.2v-3.95l17.68-1.93-17.68 5.87zm0 4.52v-3.22l20-6.63zm46.71 1.2h-46.35l24.47-12.06zm23.48-.45v.45h-20.9l-20.88-11.51 41.79 11.06zm0-10.5v9.21l-40.57-10.73 40.58 1.52zm0-6.37v5.12l-35-1.31zm0-10.43v9.18l-41.07 4.48 41.08-13.65zm0-6.69v5.39l-33.49 11.14 33.5-16.52z" fill-rule="evenodd"/><path d="m117 39.1-2.48 5.9h5.11l-2.52-5.88zm4.33 9.9-1.22-2.9h-6.11l-1.18 2.9h-1.54l5.72-13h.29l5.66 13z"/><path d="m127.14 49.15h-.3l-4.19-8.79h1.6l2.77 6.08h.06l2.75-6.08h1.56z"/><path d="m132.07 46.68a2.51 2.51 0 0 1 1.6-2.26v-.05a1.78 1.78 0 0 1 -1.38-1.74c0-1.46 1.33-2.5 3.45-2.5a6.07 6.07 0 0 1 2.61.58v1.29a5.11 5.11 0 0 0 -2.61-.68c-1.08 0-2 .55-2 1.4 0 .7.51 1.05 1.52 1.05h1.34v1.13h-1.07c-1.31 0-2 .7-2 1.56s.76 1.65 2.38 1.65a4.57 4.57 0 0 0 2.79-.93v1.3a5.7 5.7 0 0 1 -3 .77c-2.4 0-3.69-1.08-3.69-2.56z"/><path d="m141.47 38.27c0 1.56 1.23 2.26 2.81 2.26h1.87v1.15h-2a2.7 2.7 0 0 0 -2.16.88 3 3 0 0 0 -.74 2 2 2 0 0 0 1.05 1.87 12.33 12.33 0 0 0 2.83 1.25c1.69.6 2.16 1.11 2.16 1.87a6.39 6.39 0 0 1 -1.64 2.69l-1.11-.41a4.8 4.8 0 0 0 1.11-2.1c0-.39-.37-.66-1.59-1-3-.87-4.33-2-4.33-4a3.72 3.72 0 0 1 2.38-3.61v-.12a2.83 2.83 0 0 1 -2.13-2.83 3.19 3.19 0 0 1 1-2.28 4 4 0 0 1 2.94-1 5.9 5.9 0 0 1 3 .72v1.39a5.09 5.09 0 0 0 -2.82-.92 2.26 2.26 0 0 0 -2.54 2.17z"/><path d="m152.25 38.72h-1.07l2.1-3.08 1.39.46zm-.16 9.3a2.81 2.81 0 0 0 2.22-1 3.43 3.43 0 0 0 .84-2.36 3.35 3.35 0 0 0 -.86-2.32 2.79 2.79 0 0 0 -2.21-1 2.9 2.9 0 0 0 -2.24 1 3.37 3.37 0 0 0 -.86 2.32 3 3 0 0 0 3.1 3.32zm3.16-6.38.39-1.27h.94v8.63h-1.15l-.21-1.29h-.06a3.91 3.91 0 0 1 -3.16 1.5 4.41 4.41 0 0 1 -3.32-1.21 4.54 4.54 0 0 1 -1.19-3.28 4.46 4.46 0 0 1 4.5-4.54 4.13 4.13 0 0 1 3.25 1.46z"/><path d="m166 42.35a3.1 3.1 0 0 0 -4.54 0 3.47 3.47 0 0 0 -.84 2.4 3.36 3.36 0 0 0 .84 2.3 2.92 2.92 0 0 0 2.28.93 3 3 0 0 0 2.24-.9 3.35 3.35 0 0 0 .88-2.41 3.4 3.4 0 0 0 -.86-2.34zm-5.37 5.58v5.28h-1.51v-8.21a5.17 5.17 0 0 1 1.21-3.44 4.23 4.23 0 0 1 3.39-1.44 4.47 4.47 0 0 1 3.28 1.35 4.71 4.71 0 0 1 .06 6.45 4.18 4.18 0 0 1 -3.18 1.28 4 4 0 0 1 -3.18-1.34l-.11.06z"/><path d="m169.13 40.36h6.55v1.17h-2.87v4.83c0 1 .32 1.58 1.25 1.58a2.83 2.83 0 0 0 1.6-.53v1.23a3.2 3.2 0 0 1 -1.87.56 2.77 2.77 0 0 1 -1.87-.6 1.74 1.74 0 0 1 -.39-.73 6.69 6.69 0 0 1 -.19-2v-4.34h-2.21z"/><path d="m185.24 49h-1.46v-5.07c0-1.58-.78-2.53-2-2.53-1.58 0-2.75 1.09-2.75 3.18v4.42h-1.46v-8.64h1l.28 1.29h.08a3.72 3.72 0 0 1 3-1.48c2.2 0 3.35 1.29 3.35 3.61v5.22z"/><path d="m186.47 40.36h6.53v1.17h-2.87v4.83c0 1 .31 1.58 1.25 1.58a2.81 2.81 0 0 0 1.6-.53v1.23a3.19 3.19 0 0 1 -1.87.56 2.78 2.78 0 0 1 -1.87-.6 1.73 1.73 0 0 1 -.39-.73 6.69 6.69 0 0 1 -.19-2v-4.34h-2.2v-1.17z"/><path d="m202.58 49h-1.47v-5.07c0-1.58-.78-2.53-2-2.53-1.58 0-2.75 1.09-2.75 3.18v4.42h-1.46v-8.64h1l.27 1.29h.08a3.72 3.72 0 0 1 3-1.48c2.2 0 3.35 1.29 3.35 3.61v5.22z"/><path d="m214.64 39.1-2.51 5.9h5.11l-2.52-5.88zm4.29 9.9-1.23-2.9h-6.07l-1.2 2.9h-1.54l5.69-13h.3l5.65 13z"/><path d="m228.84 42.35a3.11 3.11 0 0 0 -4.54 0 3.46 3.46 0 0 0 -.84 2.4 3.35 3.35 0 0 0 .84 2.3 3.25 3.25 0 0 0 4.52 0 3.33 3.33 0 0 0 .88-2.41 3.41 3.41 0 0 0 -.86-2.34zm-5.38 5.58v5.28h-1.46v-8.21a5.16 5.16 0 0 1 1.21-3.44 4.24 4.24 0 0 1 3.39-1.44 4.46 4.46 0 0 1 3.31 1.33 4.71 4.71 0 0 1 .06 6.45 4.18 4.18 0 0 1 -3.18 1.28 4 4 0 0 1 -3.18-1.34l-.12.06z"/><path d="m238.8 49.03-2.73-4.19-2.81 4.19h-1.58l3.01-4.44-2.83-4.23h1.58l2.63 3.98 2.61-3.98h1.58l-2.85 4.21 3 4.46z"/><path d="m245.48 38.72h-1.07l2.11-3.08 1.39.46-2.42 2.62zm4.21 10.28h-1.46v-5.07c0-1.58-.78-2.53-2.05-2.53-1.58 0-2.75 1.09-2.75 3.18v4.42h-1.43v-8.64h1l.27 1.29h.08a3.72 3.72 0 0 1 3-1.48c2.2 0 3.35 1.29 3.35 3.61v5.22z"/><path d="m117.29 59.7-3.88 8.68h7.78l-3.88-8.68zm.18-3 5.87 13h-12l5.85-13z"/><path d="m132.71 69.68h-1.46v-5.11c0-1.57-.78-2.53-2-2.53-1.58 0-2.75 1.09-2.75 3.18v4.46h-1.5v-8.68h1l.27 1.28h.08a3.72 3.72 0 0 1 3-1.48c2.2 0 3.35 1.29 3.35 3.61v5.26z"/><path d="m135.45 61h1.46v5.34a2 2 0 0 0 1.95 2.28c1.56 0 2.61-1.07 2.61-3.12v-4.5h1.53v8.67h-1l-.31-1.17a.14.14 0 0 0 -.08 0 3.62 3.62 0 0 1 -2.94 1.35 2.27 2.27 0 0 1 -1.72-.55v4.58h-1.48v-12.88z"/><path d="m149.85 68.65a2.84 2.84 0 0 0 2.26-1 3.49 3.49 0 0 0 .83-2.38 3.43 3.43 0 0 0 -.86-2.34 3.12 3.12 0 0 0 -4.49 0 3.43 3.43 0 0 0 -.86 2.34 3 3 0 0 0 3.1 3.33zm3.27-6.55a4.43 4.43 0 0 1 1.29 3.24 4.48 4.48 0 0 1 -4.57 4.54 4.35 4.35 0 0 1 -4.6-4.54 4.4 4.4 0 0 1 1.32-3.22 4.46 4.46 0 0 1 3.28-1.33 4.37 4.37 0 0 1 3.27 1.31z"/><path d="m158.55 63.13a3.27 3.27 0 0 0 -.84 2.3 3 3 0 0 0 3 3.25 2.77 2.77 0 0 0 2.2-.93 3.37 3.37 0 0 0 .84-2.32 3.33 3.33 0 0 0 -.82-2.3 3 3 0 0 0 -4.41 0zm5.19-1v.08a4.16 4.16 0 0 1 1.52 3.26 4.23 4.23 0 0 1 -1.27 3.1 4.47 4.47 0 0 1 -7.72-3.16 4.25 4.25 0 0 1 1.3-3.16 4.4 4.4 0 0 1 3.2-1.28h5v1.17z"/><path d="m168.73 69.68h-1.5v-8.68h1.5v8.67zm-.54-10.31h-1.07l2.1-3.08 1.39.47-2.41 2.61z"/><path d="m183 68.53a3.22 3.22 0 0 1 -2.77 1.33 3 3 0 0 1 -2.71-1.54h-.09a3.32 3.32 0 0 1 -2.83 1.54c-2.32 0-3.53-1.74-3.53-4.37a5.27 5.27 0 0 1 1-3.24 3.58 3.58 0 0 1 2.83-1.42c.08.25.21.62.39 1.11-1.72.1-2.67 1.52-2.67 3.45s.8 3.28 2.18 3.28a2.05 2.05 0 0 0 2-2.3v-2.64h1.38v2.71a2.09 2.09 0 0 0 2 2.22c1.42 0 2.28-1.38 2.28-3.28s-1-3.35-2.67-3.45l.39-1.13a3.49 3.49 0 0 1 2.81 1.4 5.12 5.12 0 0 1 1 3.18 5.24 5.24 0 0 1 -1 3.14z"/><path d="m189.63 69.8h-.3l-4.19-8.79h1.6l2.77 6.08h.06l2.75-6.08h1.55z"/><path d="m209.1 68.35v1.33h-8.71v-12.89h8.22v1.31h-6.64v4.15h6.14v1.29h-6.14v4.81z"/><path d="m213 63.13a3.28 3.28 0 0 0 -.84 2.3 3 3 0 0 0 3 3.25 2.78 2.78 0 0 0 2.2-.93 3.37 3.37 0 0 0 .84-2.32 3.33 3.33 0 0 0 -.82-2.3 3 3 0 0 0 -4.41 0zm5.19-1v.08a4.16 4.16 0 0 1 1.52 3.26 4.22 4.22 0 0 1 -1.27 3.1 4.47 4.47 0 0 1 -7.72-3.16 4.25 4.25 0 0 1 1.28-3.12 4.4 4.4 0 0 1 3.2-1.28h5v1.17z"/><path d="m226 59.37h-1.07l2.07-3.08 1.38.47zm-.29 9.28a2.83 2.83 0 0 0 2.26-1 3.48 3.48 0 0 0 .84-2.38 3.44 3.44 0 0 0 -.86-2.34 3.11 3.11 0 0 0 -4.48 0 3.45 3.45 0 0 0 -.86 2.34 3 3 0 0 0 3.1 3.33zm3.29-6.55a4.44 4.44 0 0 1 1.29 3.24 4.47 4.47 0 0 1 -4.56 4.54 4.36 4.36 0 0 1 -4.6-4.54 4.4 4.4 0 0 1 1.33-3.22 4.45 4.45 0 0 1 3.27-1.33 4.39 4.39 0 0 1 3.27 1.31z"/><path d="m236.57 61.61a3.43 3.43 0 0 0 -2.27 1.39 3.92 3.92 0 0 0 -.8 2.36 3.6 3.6 0 0 0 .82 2.4 3.13 3.13 0 0 0 4.52 0 3.5 3.5 0 0 0 .86-2.38c0-1.85-1-3.1-3.12-3.7zm3.18-5.4v1.31a5.62 5.62 0 0 0 -2.77-.8c-1.34 0-2.24.57-2.24 1.64 0 .88 1 1.46 2.26 2a17.1 17.1 0 0 1 1.87.91 4.75 4.75 0 0 1 1 7.31 4.39 4.39 0 0 1 -3.27 1.31 4.3 4.3 0 0 1 -4.6-4.54 4.75 4.75 0 0 1 .82-2.63 4.4 4.4 0 0 1 2.3-1.75v-.08a2.73 2.73 0 0 1 -1.81-2.47 2.52 2.52 0 0 1 .93-2 3.71 3.71 0 0 1 2.53-.82 6.28 6.28 0 0 1 3 .64z"/><path d="m254.87 68.53a3.24 3.24 0 0 1 -2.77 1.33 3 3 0 0 1 -2.72-1.54h-.09a3.33 3.33 0 0 1 -2.83 1.54c-2.32 0-3.53-1.74-3.53-4.37a5.25 5.25 0 0 1 1-3.24 3.58 3.58 0 0 1 2.83-1.42c.08.25.21.62.39 1.11-1.71.1-2.67 1.52-2.67 3.45s.8 3.28 2.18 3.28a2 2 0 0 0 2-2.3v-2.64h1.34v2.71a2.09 2.09 0 0 0 2 2.22c1.43 0 2.28-1.38 2.28-3.28s-1-3.35-2.67-3.45l.39-1.13a3.48 3.48 0 0 1 2.81 1.4 5.13 5.13 0 0 1 1 3.18 5.26 5.26 0 0 1 -1 3.14z"/><path d="m261.48 69.8h-.3l-4.19-8.79h1.6l2.77 6.08h.06l2.75-6.08h1.56z"/><path d="m124.76 15.39h-5.57l2.75-6.22h.14zm-13.69 7h5l1.56-3.53h8.6l1.52 3.53h5.13l-10.22-22.39h-1.16z"/><path d="m149.45 15.39h-5.57l2.75-6.22h.14zm-13.69 7h5l1.57-3.53h8.59l1.53 3.53h5.14l-10.25-22.39h-1.16z"/><path d="m176.3 18.49h-9.65l4.75-10.63h.06l4.83 10.63zm-15.8 3.9h22.15l-10.46-22.39h-1.13l-10.55 22.39z"/><path d="m200.68 3.88v-3.88h-15.18v22.39h15.83v-3.9h-10.78v-5.88h9.08v-3.77h-9.08v-4.96z"/></g></svg>