<svg fill="none" height="120" viewBox="0 0 183 120" width="183" xmlns="http://www.w3.org/2000/svg" xmlns:xlink="http://www.w3.org/1999/xlink"><clipPath id="a"><path d="m0 0h182.2v120h-182.2z"/></clipPath><mask id="b" height="120" maskUnits="userSpaceOnUse" width="183" x="0" y="0"><path d="m182.2 0h-182.2v120h182.2z" fill="#fff"/></mask><g clip-path="url(#a)"><g mask="url(#b)"><path clip-rule="evenodd" d="m182.2 23.2005-2.3-.8-20.9-9.4s13.4 3.8 17.3 4.2 6.2.6 2.6-1-24-8.50004-20.7-8.10004 9.4 2.70004 16.5 2.50004c1.3-1.60004-28.2-7.80004-41.3-10.100044-13.1-2.299996-17.1 3.300004-21.6 8.400004-2.5 2.80004-3.7 4.00004-4.3 4.60004l-1.3 1c-2.5-1.7-7.5-1.5-10.3-1l.3.2c-1.0911-.0858-2.1871.0854-3.2.5.1183.1845.294.325.5.4-.3491-.0361-.7018.0083-1.0312.1296-.3293.1214-.6265.3164-.8688.5704-.4584-.0343-.9137.0989-1.2815.3747-.3677.2758-.623.6756-.7185 1.1253-.558.0025-1.0942.217-1.5.6-.7113-.002-1.4073.2068-2 .6-3.6 1.7-5.5.6-5.5.6l-.4-.2c-7.5-4.9-14.5-13.10004-21.2-16.90004s-44.9 8.70004-53.9 12.40004c1.2.9 10.6-1.3 14.4-1.9-6.6 2.8-12.9 5.9-19.1 9.1.5 1.3 10.1-2 20.2-5.5-8.2 4.3-15.9 8.4-20.6 11.6 2.4.5 11.1-3.3 19.9-7.2l-18.8 12.4c1.6.4 6.9-1.5 15.5-5.7l-12.1 9.6c2.5.7 7.9-2 15-6.4-3 2.8-6 5.6-5.9 7.3s4.5-.7 9.2-2.8c-1.5 1.4-2.3 2.6-1.8 3.6 1.3021.1396 2.6189.0168 3.8727-.361 1.2538-.3779 2.4192-1.0032 3.4273-1.839-1.9 3 2.9 2.3 4.8 1 0 1.6 2.2 1.1 5.6-.6.8 1.2 2.8.5 5.2-1 .3.8 1.2.9 2.6.4-.7 1.7 1.3 1.3 2.7 1.4 0 1.7333 1.1 2.0333 3.3.9.4 1.5 1.9 1.4 3.6 1.1 1 1.6 2.4 1.6 4 .7-.0007.4605.1751.9038.4914 1.2387.3162.3348.7488.5357 1.2086.5613h.6c.5 2.1 1.7 2.4 3.3 1.7-.1 3.8 1.2 3.6 2.7 2.8 1.5 2.1 2.4 1.7 3.1-.1.6 3.3 2 2.4 3.6-.1.9.9 1.7.8 2.2-.7.8 1.2 1.3-.8 2.7-1.6 2.9 6.5-.5 8.8.4 13.4.3.4.3-2 .6-1.6s-.2 3.7 1.4 4.7c.2-2.2.9-1.8 1.4.4.3-2 .1-4.3 1.6-.2.1-1.5-.1-3.3.3-3.2s.8 2.9.6 3.9-5.3 4.6-5.4 6.1 0 2.5 1.2 3.4c-.5-1-.8-1.9.1-2.3s1.7-1.5 2.4-2.7.9.2.7 0 .4-1.9 1.2-2.6-.1 2.9 2.3 4.1l1.4 3.9-.6-3.8c.8-.7-1-3.1-1-4.1s1.6-.2 2.9.3c-.7-1.4-2.9-1.3-2.7-2.5.4851-.0013.9655.0954 1.4123.2845.4468.189.8508.4664 1.1877.8155.1-1.4.9-1.6 1.6-.9s1.1-1.8 1.7-1.6.3.8.6.8 1.1-1.2 1.6-.4c-.2.6-2.7.6-3.9 2.1.6-.6 3.3-1.2 3.7-.9l-.6.5c-1.5.5-4.7 1.1-4 2.8-.2024.0683-.3739.2064-.4839.3896-.1099.1832-.1511.3996-.1161.6104 1.3-1 4.1-3.2 4.8-2.5s-1.3 3.6-.9 4.4.1 1.9.7 2.2c-.0993-.2197-.1238-.4658-.0696-.7007s.1841-.4455.3696-.5993c2.4-.9 1.6-4.8 2.4-5.1s2.3 2.3 3.7 2 .6 1.1.7 1c.022-.4977-.119-.989-.4-1.4.2-1.1-2.2-2.6-3.8-3.5.1-1.2.2-2.4.9-2.5s2.1 3.6 2.2 2.7c.6-2.8 1.3-1 2-.7-.6-2.2.2-2.2 1.8-.8v-2.3c.8 1.1 1.5 1.8 1.8 1.4s0-2.1 0-3.4c1.8 3.5-.1-3.6.8-2.8-.5-3.8-5.1-7.1-4.6-9.8 2.1 3.5 4.3 6.5 6.9 5.4 1.7.6 2.7.6 3-.2s1.8.3 1.7-.8c1.5.9 2.3.8 1.9-.7 1.9-.6 1.8-1.4 1.6-2.2 2.4-1 2.7-1.9 1.6-2.7s2.4 0 1.2-1.5c3.1.1 2.6-1.6 2.6-1.6s3.4-.6 2.4-2.2c.7.4 3.9 1 3.2-.5 0 .1.4.2 1.7.1s1.3-1.1 1.1-1.3c3.4.7 2.8-.9 2.3-1.6.399.1947.851.2513 1.286.1608.434-.0905.826-.323 1.114-.6608 1.087.8273 2.304 1.4693 3.6 1.9 1.7.3 2.2-.5 2.2-.5 1.188.4841 2.43.82 3.7 1 .9 0 .6-.6.6-.6s4.3.5 5.1-.3-.8-2-.8-2l4 1.7c2.4.9 5.6.8 5.3.3l-4.4-4.5s8.4 3.5 10 3.8 2.4-.2 2.2-.4-6-5.7-6-5.7 13.3 5.7 14.1 5.3-.9-1.2-1.6-1.7l-16.2-10 10.6 4.3c3.379 1.5009 6.944 2.5435 10.6 3.1.3-.1-5.1-2.9-6.9-3.9s-12.8-7.1-12.8-7.1l16 5.6c3.2 1.1 5.9.7 5.4.4z" fill="#fff" fill-rule="evenodd"/><g fill="#d33227"><path d="m96.0999 67.5002c0-.2-.5-.4-.6-.2-.0058.5803.0959 1.1567.3 1.7-.0056-.5154.0966-1.0264.3-1.5zm-6.7-1.8-.2-.2h-.4l.2.6.3.8.3 1v-.7c-.0251-.4387-.0921-.874-.2-1.3v-.5zm-10.4 14.6c-.0145-2.0872.2205-4.1686.7-6.2.3982-2.0452 1.2153-3.9859 2.4-5.7 1.2747-1.7848 3.0001-3.1996 5-4.1l.7-.3v.2c0 .7.3 1.2.5 1.2.0671-.1718.1992-.3102.3678-.3851.1685-.0749.3597-.0802.5322-.0149-.3457-.3794-.6171-.8204-.8-1.3 1.4873-.5003 3.0338-.8029 4.6-.9-.1792.087-.3195.2377-.3935.4226s-.0763.3908-.0065.5774c0 .2.8-.5 1.9-1.1h2.6c-.4 1.4-1.1 2.7-1.3 3.3s-.1.5-.2.7c.0709-.0568.1591-.0878.25-.0878s.1791.031.25.0878c.4.2.4.7.5.7s-.3-1 0-.9.6.6.6.2c-.0056-.7768.0954-1.5506.3-2.3.1803-.5546.3141-1.1232.4-1.7l2.7001.3c.4.6.5 1 1.3 1s0 .6.4.4.1-.7-.5-1.2c1.395.2939 2.766.695 4.1 1.2l1.5 1c.197.2507.328.5471.38.8616.053.3146.025.6373-.08.9384l-.9 3.7c-.067.6667-.267 1.0667-.6 1.2h-1.6l-4.5-.4h-3.4001c-1.0672-.0621-2.133.1442-3.1.6-.8216.4016-1.5144 1.0251-2 1.8-.5373.8107-.8796 1.7349-1 2.7-.1991 1.0887-.2995 2.1932-.3 3.3-.0032 1.3723.0971 2.7428.3 4.1.1194.9964.4612 1.9533 1 2.8.4575.7127 1.1198 1.2704 1.9 1.6.9791.4099 2.0416.5812 3.1.5h5.7001l2.4-.2c.562-.0991 1.138-.0991 1.7 0 .2.0667.4.4667.6 1.2l.9 3.4c.14.2884.195.6104.16.9288-.036.3185-.161.6205-.36.8712-.412.4742-.924.8501-1.5 1.1-1.575.6305-3.22 1.0671-4.9 1.3-1.8775.3644-3.7879.532-5.7001.5-2.024.0749-4.0476-.1612-6-.7-1.575-.3966-3.0656-1.0741-4.4-2-1.1728-.8059-2.2178-1.7835-3.1-2.9-.7704-1.158-1.4078-2.3992-1.9-3.7-.4529-1.3286-.7548-2.7039-.9-4.1-.203-1.4243-.3032-2.8613-.3-4.3"/><path d="m133.7 80.4004c.016-1.4103-.118-2.8182-.4-4.2-.19-1.0102-.599-1.9661-1.2-2.8-.551-.7476-1.319-1.3064-2.2-1.6-1.067-.3305-2.185-.466-3.3-.4-2.5 0-4.2.7-5.2 2s-1.4 3.8-1.4 7 .5 5.5 1.4 6.8 2.7 2.1 5.2 2.1 4.4-.7 5.4-2.1 1.7-3.6 1.7-6.8zm10.9-.5c0 1.2-.1 2.6-.2 4-.108 1.4019-.411 2.7819-.9 4.1-.492 1.3327-1.129 2.6071-1.9 3.8-.867 1.2833-1.991 2.3729-3.3 3.2-1.504.9929-3.159 1.7358-4.9 2.2-4.568 1.0995-9.332 1.0995-13.9 0-1.703-.4849-3.321-1.2268-4.8-2.2-2.455-1.6995-4.227-4.2157-5-7.1-.41-1.3006-.678-2.6417-.8-4-.1-1.4-.2-2.8-.2-4s.1-2.3.2-3.4c.193-1.2569.495-2.4948.9-3.7.492-1.3328 1.129-2.6072 1.9-3.8.847-1.2322 1.895-2.3138 3.1-3.2 1.499-1.025 3.154-1.8016 4.9-2.3 2.212-.6167 4.506-.8866 6.8-.8 3.2-.1042 6.391.405 9.4 1.5 2.105.9126 3.983 2.2784 5.5 4 1.231 1.6622 2.084 3.5735 2.5 5.6.485 1.9964.72 4.0455.7 6.1z"/><path d="m162.4 88.8002-4.8-7h-.2v14.5c.022.2813-.048.5621-.2.8-.1.3-.4.4-1 .4h-7.7c-.194.03-.392.0187-.582-.0329-.189-.0517-.366-.1427-.518-.2671-.114-.2874-.182-.5912-.2-.9v-32c.007-.2781.076-.5512.2-.8.134-.155.305-.2732.498-.3432.192-.07.4-.0896.602-.0568h5.5c.584-.0965 1.184.0093 1.7.3l.9.9 5.8 8.4 4.4 6.3h.2v-14.7c.021-.244.089-.4817.2-.7.1-.4.5-.5 1.1-.5h7.7c.187-.0357.381-.017.558.0539.178.0709.331.191.442.3461.101.1066.179.2323.231.3697.051.1374.075.2837.069.4303v32c-.007.3234-.111.6372-.3.9-.133.1221-.293.2125-.466.2645-.173.0519-.356.0641-.534.0355h-5.5c-.595.0587-1.193-.082-1.7-.4-.434-.2507-.809-.5917-1.1-1z"/><path d="m66.0999 89.2007h11.6c.2502-.0237.5001.0477.7.2.1055.0786.1822.1897.2183.3162.0361.1264.0297.2613-.0183.3838v6.3c.0396.2825-.0321.5693-.2.8-.152.1243-.3286.2153-.5181.267s-.3878.0629-.5819.033h-20.5c-.1785.0285-.3612.0164-.5343-.0356-.1732-.0519-.3324-.1423-.4657-.2644-.1887-.2628-.2933-.5766-.3-.9v-32c-.0059-.1467.0176-.293.0692-.4304.0515-.1373.13-.263.2308-.3696.1111-.1552.2644-.2753.4416-.3462.1772-.0708.3709-.0895.5584-.0538h8c.1785-.0286.3612-.0164.5343.0355.1732.052.3324.1424.4657.2645.1887.2627.2933.5765.3.9z"/><path d="m37.2999 78.5004-1.3-5.4h-.4l-2.5 9.8h5.3zm-7.8 17.3c-.129.5329-.4063 1.0183-.8 1.4-.476.1955-.9854.2974-1.5.3h-7.4c-.1711.0421-.3495.046-.5223.0115-.1728-.0346-.3359-.1068-.4777-.2115-.2-.2-.2-.6 0-1.3l10.1-31.2c.1322-.4807.3715-.9251.7-1.3.5703-.3501 1.2313-.524 1.9-.5h8.5c.6404-.0529 1.2786.1244 1.8.5.3613.4058.6338.8827.8 1.4l10.6 31.2c.3.9.1 1.4-.7 1.4h-8.2c-.2872.0445-.5807.0226-.8581-.0641-.2774-.0866-.5312-.2358-.7419-.4359-.3119-.4595-.5483-.9659-.7-1.5l-1.4-5.1h-9.6z"/><path d="m.199951 64.3004c.007297-.2781.075571-.5512.2-.8.133953-.155.305371-.2732.497924-.3432.192555-.07.399825-.0896.602075-.0568h20.00005c.3565-.0073.7063.0976 1 .3.1886.2628.2932.5766.2999.9v6c.0059.1466-.0176.2929-.0691.4303s-.13.2631-.2308.3697c-.1288.1289-.2876.2239-.4622.2762-.1745.0524-.3594.0606-.5378.0238h-10.7v4.2h8.7c.3234.0067.6372.1113.9.3.2308.2465.3717.5636.3999.9v6c-.007.2929-.1127.5748-.2999.8-.2988.1914-.6452.2954-1 .3h-8.7v12.4c-.0308.2744-.0981.5434-.2.8-.1.3-.5.4-1.00005.4h-8.1c-.17851.0286-.36117.0164-.534334-.0355-.17316-.052-.332345-.1424-.465665-.2645-.188685-.2628-.293284-.5765-.3-.9z"/></g><g fill="#000"><path d="m146.2 114.9v4.4c0 .3-.1.4-.4.4s-2.3-.1-2.3-.4v-4.4l-3.7-6.3c-.1-.1-.2-.2-.2-.3l.4-.2 2-.3h.3l.3.2 1.6 3c.308.581.575 1.182.8 1.8l.9-2 1.5-2.7.3-.3h.3l1.7.3c.3.1.4.2.4.3v.2zm-16-4.9v9.3c0 .3-.1.4-.4.4h-1.9c-.3 0-.4-.1-.4-.4v-9.3h-2.9v-1.6c-.005-.054.002-.109.019-.16.017-.052.045-.099.081-.14h9v.3l-.4 1.3c-.041.096-.112.177-.202.23-.089.054-.194.079-.298.07zm-12.8 8.4v.9c0 .3-.1.4-.4.4h-4.9c-.3 0-.5-.1-.5-.4v-.9c0-.2.2-.3.5-.3h1.1v-8.5h-1.1c-.3 0-.5-.1-.5-.4v-.9c0-.2.2-.3.5-.3h4.9c.3 0 .4.1.4.3v.9c0 .3-.1.4-.4.4h-1.1v8.5h1.1c.3 0 .4.1.4.3zm-19.7-3.5v4.4c0 .3-.1.4-.4.4h-1.9c-.3 0-.4-.1-.4-.4v-11c0-.2.1-.3.4-.3h3.3c.9836-.058 1.969.077 2.9.4.55.247 1.008.659 1.313 1.179.305.519.44 1.121.387 1.721.041.418-.009.841-.147 1.238s-.361.76-.653 1.062c-.466.326-.97.594-1.5.8l3 4.6c.062.047.113.107.147.176.035.07.053.146.053.224l-.4.2-1.7.4h-.3c-.1 0-.2-.2-.4-.5l-2.7-4.6zm0-1.8h.5c.6234.012 1.2406-.125 1.8-.4.225-.151.401-.363.507-.611.107-.249.139-.523.093-.789.045-.264 0-.535-.126-.77-.127-.236-.329-.422-.574-.53-.4691-.214-.9912-.284-1.5-.2h-.7zm-12-4.8v7.4c.056 1.121-.2997 2.223-1 3.1-1.098.885-2.4942 1.315-3.9 1.2-1.3745.11-2.7376-.321-3.8-1.2-.3647-.424-.641-.917-.8127-1.449s-.2354-1.094-.1873-1.651v-7.4c0-.2.1-.3.4-.3h1.9c.3 0 .4.1.4.3v7.4c-.0058.58.0959 1.157.3 1.7.5008.471 1.1625.733 1.85.733.6876 0 1.3492-.262 1.85-.733.2041-.543.3059-1.12.3-1.7v-7.4c0-.2.1-.3.4-.3h1.8c.3 0 .5.1.5.3zm-18.7 9.4.6.9c.0362.041.0638.088.0809.14.0172.051.0237.106.0191.16 0 .2-.3.4-.9.7-.7688.279-1.5823.414-2.4.4-3.5 0-5.2-2-5.2-6.1-.0799-1.634.3766-3.25 1.3-4.6.4855-.546 1.0891-.974 1.765-1.251s1.4061-.397 2.135-.349c.7604.01 1.5101.18 2.2.5.7.3 1.1.5 1.1.7s-.1.2-.1.3l-.8 1h-.2l-.8-.4c-.3938-.238-.8403-.376-1.3-.4-.363.003-.7211.085-1.0492.241-.3281.155-.6184.38-.8508.659-.4175.977-.5891 2.041-.5 3.1-.1201 1.149.0166 2.31.4 3.4.1827.379.4657.7.8183.93.3527.229.7614.357 1.1817.37l1.4-.4.9-.3.2.2m-15.7.5v1.2c0 .2-.2.3-.4.3h-6.6c-.3 0-.5-.1-.5-.3v-11c0-.2.2-.3.5-.3h7v.3l-.4 1.1c-.0414.096-.112.177-.2017.23-.0897.054-.194.079-.2983.07h-3.9v2.8h3.8c.0362.041.0638.088.0809.14.0172.051.0237.106.0191.16v1.1c0 .3-.2.4-.5.4h-3.4v3.4h4.3c.2-.1.3 0 .4 0s.1.2.1.3m-16.1-9-.7 1.1c-.1.1-.1.2-.2.2l-.9-.4c-.6097-.228-1.2502-.363-1.9-.4-1.3 0-1.9.5-1.9 1.4.0166.214.0903.42.2134.596s.2912.315.4866.404l1.6.7 1.8.9c.5245.278.9613.697 1.2615 1.209s.4521 1.097.4385 1.691c.0326.499-.0601.998-.2697 1.452s-.5294.849-.9303 1.148c-.8927.67-1.984 1.022-3.1 1-.9813.014-1.9591-.121-2.9-.4-.9-.3-1.3-.5-1.3-.6v-.3l.5-1.1.2-.2 1 .4c.7508.198 1.5237.299 2.3.3 1.2 0 1.8-.5 1.8-1.5 0-.7-.4-1.2-1.3-1.6l-2.8-1.2c-.4781-.24-.886-.6-1.1838-1.045-.2978-.444-.4755-.958-.5158-1.492-.0403-.533.0583-1.068.286-1.553.2277-.484.577-.901 1.0136-1.21.9114-.614 2.0056-.896 3.1-.8.8835-.021 1.7637.115 2.6.4.9.2 1.3.4 1.3.6z"/><g clip-rule="evenodd" fill-rule="evenodd"><path d="m107.4 22.3c.057-.083.131-.1528.217-.2045.087-.0518.183-.0844.283-.0955.1 0-.6.3-.2.4s.7-1.8-.4-.4c-.272.2525-.629.3951-1 .4.3.2.7 0 1.1-.1z"/><path d="m103.2 19.3008h-.2c0 .053.021.1039.059.1414.037.0375.088.0586.141.0586.058-.0513.094-.123.1-.2z"/><path d="m182.2 23.2005-2.3-.8-20.9-9.4s13.4 3.8 17.3 4.2 6.2.6 2.6-1-24-8.50004-20.7-8.10004 9.4 2.70004 16.5 2.50004c1.3-1.60004-28.2-7.80004-41.3-10.100044-13.1-2.299996-17.1 3.300004-21.6 8.400004-2.5 2.80004-3.7 4.00004-4.3 4.60004-.362.4174-.804.7576-1.3 1-2.5-1.7-7.5-1.5-10.3-1l.3.2c-1.0911-.0858-2.1871.0854-3.2.5.1183.1845.294.325.5.4-.3491-.0361-.7018.0083-1.0312.1296-.3293.1214-.6265.3164-.8688.5704-.4584-.0343-.9137.0989-1.2815.3747-.3677.2758-.623.6756-.7185 1.1253-.558.0025-1.0942.217-1.5.6-.7113-.002-1.4073.2068-2 .6-3.6 1.7-5.5.6-5.5.6l-.4-.2c-7.5-4.9-14.5-13.10004-21.2-16.90004s-44.9 8.70004-53.9 12.40004c1.2.9 10.6-1.3 14.4-1.9-6.6 2.8-12.9 5.9-19.1 9.1.5 1.3 10.1-2 20.2-5.5-8.2 4.3-15.9 8.4-20.6 11.6 2.4.5 11.1-3.3 19.9-7.2l-18.8 12.4c1.6.4 6.9-1.5 15.5-5.7l-12.1 9.6c2.5.7 7.9-2 14.9-6.4-2.9 2.8-5.9 5.6-5.8 7.3s4.5-.7 9.2-2.8c-1.5 1.4-2.3 2.6-1.8 3.6 1.3021.1396 2.6189.0168 3.8727-.361 1.2538-.3779 2.4192-1.0032 3.4273-1.839-2 3 2.9 2.3 4.8 1 0 1.6 2.1 1.1 5.6-.6.8 1.2 2.8.5 5.2-1 .3.8 1.2.9 2.6.4-.7 1.7 1.3 1.3 2.7 1.4 0 1.7333 1.1 2.0333 3.3.9.4 1.5 1.9 1.4 3.6 1.1 1 1.5 2.3 1.6 3.9.7.0241.4695.2215.9135.554 1.246.3325.3324.7764.5298 1.246.554h.6c.5 2.1 1.7 2.4 3.3 1.7-.1 3.8 1.2 3.6 2.7 2.8 1.5 2.1 2.4 1.7 3.1-.1.6 3.3 1.9 2.4 3.6-.1.9.9 1.7.8 2.2-.7.8 1.2 1.3-.9 2.7-1.6 2.9 6.5-.5 8.8.4 13.4.2.4.3-2 .6-1.6s-.2 3.7 1.4 4.7c.2-2.2.9-1.9 1.4.3.3-1.9.1-4.2 1.6-.1.1-1.5-.1-3.3.3-3.2s.8 2.9.6 3.9-5.3 4.6-5.4 6.1 0 2.5 1.2 3.4c-.5-1-.8-1.9.1-2.3s1.7-1.5 2.4-2.7.9.2.7 0 .4-1.9 1.2-2.7-.1 3 2.3 4.2l1.4 3.9-.6-3.8c.8-.7-1-3.1-1-4.1s1.6-.2 2.9.3c-.7-1.4-2.9-1.3-2.7-2.6.9805.083 1.9007.5077 2.6 1.2.1-1.4.8-1.6 1.6-.9s1.1-1.8 1.7-1.6.2.8.6.8 1.1-1.3 1.6-.4c-.3.6-2.7.6-3.9 2.1.6-.6 3.3-1.2 3.7-.9l-.6.5c-1.5.5-4.7 1.1-4 2.7-.1972.1128-.3639.2719-.4859.4635-.1219.1916-.1954.4101-.2141.6365 1.3-1 4.2-3.2 4.9-2.5s-1.3 3.6-.9 4.4 0 1.9.7 2.2c-.1071-.2347-.1357-.4975-.0817-.7497.0541-.2522.1879-.4802.3817-.6503 2.4-.8 1.6-4.7 2.4-5.1s2.3 2.4 3.7 2.1.6 1.1.7 1c.022-.4977-.119-.989-.4-1.4.2-1.1-2.3-2.6-3.8-3.5.1-1.3.2-2.4.9-2.5s2 3.6 2.2 2.7c.6-2.8 1.3-1 2-.7-.6-2.2.1-2.2 1.8-.8v-2.3c.8 1.1 1.5 1.8 1.8 1.4s0-2.1 0-3.4c1.8 3.5-.1-3.6.8-2.8-.5-3.8-5.1-7.1-4.6-9.8 2.1 3.5 4.3 6.5 6.9 5.4 1.7.6 2.7.6 3-.2s1.8.3 1.6-.8c1.6.9 2.4.8 2-.8 1.9-.5 1.8-1.3 1.6-2.1 2.4-1 2.7-1.9 1.6-2.7s2.4 0 1.2-1.5c3.1.1 2.6-1.6 2.6-1.6s3.4-.6 2.4-2.2c.7.4 3.9 1 3.2-.5 0 .1.4.2 1.7.1s1.3-1.1 1.1-1.3c3.4.7 2.8-.9 2.3-1.7.378.2457.833.3409 1.278.2669.444-.0741.845-.3121 1.122-.6669 1.087.8273 2.304 1.4693 3.6 1.9 1.7.3 2.2-.5 2.2-.5 1.188.4841 2.43.82 3.7 1 .9 0 .6-.6.6-.6s4.3.5 5.1-.3-.8-2-.8-2l4 1.6c2.4 1 5.6.9 5.3.4l-4.4-4.5s8.4 3.5 10 3.8 2.4-.2 2.2-.4-6-5.7-6-5.7 13.3 5.7 14.1 5.3-.9-1.2-1.6-1.7l-16.2-10 10.6 4.3c3.379 1.5009 6.944 2.5435 10.6 3.1.3-.1-5.1-2.9-6.9-3.9s-12.8-7.1-12.8-7.1l16.1 5.6c3.1 1.2 5.8.7 5.3.4zm-79.9 41.2c-.4.2.1-.4-.4-.4s-.7-1.3-2.8-2.6c1.3.7 4 2.5 3.2 3zm49.4-55.80004 5.6.3c5.5 1.90004 34.3 11.70004 11.9 6.20004-5.2-1.3-11-3-13.9-3.2-4.7-.4-6.7-1.4-6.7-1.4 5.5-.2-1-2.10004 3.1-1.90004zm-35.1-3.8c3-3.1 7.6-4.000004 10.3-4.200004s2.9.500004 2.9.500004l-1.5.2c-.4.1.2 1.6 0 1.8s-2.6-1.5-2.6-1.5c-.05.73246-.05 1.46753 0 2.2.1.2-2.2-1.2-2.4-1.1s-.2 1.7-.6 1.9-1.3-1.3-1.6-1.1.5 2.7.3 2.8-.7-1-1-.8.1 1.8-.4 2.1-1.5-.3-1.6-.2.3 2 .2 2.2-3.1-1-3.7-.5 1.3 3.00004.9 3.30004-1.9-1.6-2.1-1.4.6 1.9.3 2.3-2.1-1.2-2.1-1.2 1.6 2.6 1.2 2.9-2.1-.5-3-.2c.3 4.1-1.3 3.9-1.2 4-.1-1.5-2.3-3.8-2.3-3.8s7-7.10004 10-10.20004zm-29.7 13.40004c-.5719.9062-1.32 1.6884-2.2 2.3-1.5 1-4 5.1-4 5.1s.7-2.7 1.1-4c.6002-1.0393 1.561-1.8221 2.7-2.2zm-2.6 12.8s1.2 3.4 1.6 4.8-.1 6.4-.1 6.4c-.5128-1.1652-1.1498-2.2716-1.9-3.3-.9-1.1-.4-3.5.1-4.5.3023-1.1064.4039-2.2579.3-3.4zm-4.4-.6c-.1856-1.0602-.0095-2.152.5-3.1.5133-.8064.9807-1.641 1.4-2.5 0 0 .1 3.3.2 4.9s-2.3 3.7-2.3 3.7c-.3-1.7.4-2.4.2-3zm2.4 1.3c.1997-1.3929.1997-2.8072 0-4.2 0 0 2.3 4.8 1.3 6s-.5 5.1-.4 5.4c-.7069-1.0443-1.1568-2.2409-1.3132-3.4921-.1565-1.2513-.0148-2.5218.4132-3.7079zm.3 13c.1883-1.6937.2884-3.396.3-5.1l.7 4.4c.1 1.3.2 2.5.2 3.8-.5-1.5-1.3-2.6-1.2-3.1zm.4-17c.2 1.5-.7-2.9-.5-3.8.3704-.8681.915-1.6509 1.6-2.3 0 0-1.2 4.7-1.1 6.1zm-26.1-26.00004c3.9.7 15.7 11.80004 20 15.40004s6.4 2.3 6.7 2.2c-.5669.2883-1.1735.4905-1.8.6-.8.1-2.6 1.3-3.2 1.3s-.6-1.4-1.1-1.6-1.9.7-1.9.7c-.0746-.5789-.2087-1.1486-.4-1.7-.2-.2-.7 1.1-.9.9s-.3-2.1-.7-2.1-.4 1.2-.7 1.1 0-2-.1-2.2-.8 1.7-1.2 1.6-.3-1-.5-1.4-1.3.4-1.6.1.1-3-.3-3.4-1.7 1.4-2.1 1.4.2-2.9 0-3-1.8 1.4-2 1 0-2.90004-.2-3.10004-1.8 1.90004-1.9 1.80004.4-3.30004.2-3.60004-2.3 2.70004-2.6 2.40004c-.3-.30004 1.1-3.40004 1.1-3.40004s-2.2 2.1-2.5 1.7 1.2-3.6 1.2-3.6-2.1 2.2-2.4 2 1.3-2.7 1.3-2.9-2.5 1.2-2.8.6.7-1.2.7-1.2-3.3-2.1-3.1-2.1zm-38.2 13.70004-16.7 5.6 12.7-6c5.2-2.5 5.9-2.7 6.9-2.8 3.2-.2 6.3-.7 9.4-1.2s-1.5.7 2.9.5-8.6 4.7-10.8 4-2.3-.7-4.4-.1zm-.5 9.9c-4.7361 2.6081-9.72938 4.7194-14.9 6.3 1.60464-.8487 3.14241-1.8182 4.6-2.9 4.3-2.7 12.1-8.1 12.9-8.4 1.6248-.7642 3.4049-1.1408 5.2-1.1 3.4 0 6.2-2.6 7-3.2s.2.2.1.9 3.9-1.6 3.9-1.6c-5.6663 4.3566-12.0204 7.7364-18.8 10zm-2.9 11.2s-1.1-.6 2.5-4c2.3361-2.2437 5.0875-4.01 8.1-5.2 6.2-2.3 12-7.2 13.5-11.4s-.7 2.6.7 2.1 1.3-.7.2.8c-3.2233 4.2734-7.0266 8.0766-11.3 11.3-3.1 2.3-10.6 6.1-13.7 6.4zm23.5-5.1c-1.8935 1.9114-4.0085 3.59-6.3 5-1.1146.5871-2.3423.9281-3.6 1-.0964-.1854-.1467-.3912-.1467-.6 0-.2089.0503-.4147.1467-.6.4-.8 2.2-1.9 4.3-3.8 2.7691-2.536 5.3431-5.2771 7.7-8.2 1.5-2 3-4.1 4.4-6.2 0 0-.8 1.7 1 1.3s-6.1 10.6-7.5 12.1zm7.1 1.2c-2.1 2.7-4.9 3.9-6.2 3.1 4.685-4.6695 8.361-10.2515 10.8-16.4-.4 1.7.4 1.8 1.8 1.1-.5 1.3-3.1 7.9-6.4 12.2zm6.6.7c-2.9 3.4-6.4 3.7-5.2 2.2 4-4.1 6.2-9.7 8.1-15.3-.6 2.1.2 2.7 1.8 1.6-1.3 5.2-2.7 9.1-4.7 11.5zm4.1 4.8c-1.8.4-3.3.6-3.5-.6 3-2.6 4.9-7.6 6.5-14 0 2.1.6 2.3 1.4 1.8-1.1 5.4-2.4 9.8-4.4 12.8zm6.2 2.3c-1.1.5-1.9.4-2.1-1.1 1.6-3 2.2-7.4 2.4-13.3.3 1.5.8 1.3 1.4.7.1 1.9.5 2.3 1.1 1.8-.3 4.4-.8 8.4-2.7 11.9m5.9 4.7c-1.1.7-2.7 1-2.5-2.2s1.8-7.3 1.6-12.4c.9 1.9 1.6 2.4 2.2 1.7.3 5 0 9.1-1.3 12.9zm6.3-.4c-1.8 2.3-3.1 2.9-3.2.6 1.0109-3.9154 1.2822-7.9851.8-12 .9 2.5 1.8 3.3 2.6 2.6.6345 2.9074.5659 5.9243-.2 8.8zm2.6-.5c-.6-1.1.7-5.2-.1-8.7 1 2.9.7-1.8 1.1-2.9.2.8.3 1.9.5 3.5.4 3.7.8 6.4.8 6.4s-1.9 2.4-2.3 1.7zm2.4-9.3c-.1-1.3 1.7-2.9 1.7-2.9-.7 1.7 0 5.4.6 6.5s-.2 5.9-.2 5.9c-1.8-2.2-2.1-8.3-2.1-9.5zm5.5 19.1c-.2-1-1.2-3.9-1.4-4.9s0-2.6.1-3.8l1.5 3.1c.5 1-.2 4.7-.2 5.6zm.5-5.6c-.3586-1.3812-.9322-2.6973-1.7-3.9-.8-1.3-.8-5.2-.8-5.2s1.5 2.3 2.2 3.5c.3953 1.839.4965 3.7292.3 5.6zm-4.7 20.9c-.2673-.3802-.4073-.8353-.4-1.3 0-1.1.6-.5.6-.3s-.2.2-.3.8.3 1.2.1.8zm1.1-2c-.4.1-.3-.4-.5-.6s-.6.3-.6.3c.2-2 3.8-4.1 5.2-5.9-.2 1.8-3.9 4.2-4.1 6.2zm6.8-1.6c.1821.8552.2826 1.7257.3 2.6 0 0-.7-2.4-.8-2.5s.4-.4.5-.1zm-.1-.6c-.1603-.0722-.3418-.0813-.5086-.0258-.1667.0556-.3064.1719-.3914.3258-.2.1-.5-.5-.5-1.1.0273-.6369.0941-1.2715.2-1.9.209.9732.6176 1.8926 1.2 2.7zm3.8-24.7c-.2499-.3019-.4254-.6583-.5123-1.0404-.0868-.3822-.0826-.7794.0123-1.1596.4776-.7682.8161-1.6144 1-2.5.2011 1.0908.2011 2.2091 0 3.3-.1313.4785-.2985.9465-.5 1.4zm1.2 3.8s-1.5-2.1-.9-3.2c.53-1.2066.8674-2.4889 1-3.8 0 0 .8 4.7.6 5.4-.1719.5581-.4067 1.0949-.7 1.6zm.8-11.3c.0692.9809.2368 1.9524.5 2.9.4.9 2.2 2.7 1 4.4s-1 1.8-1 1.8-.4-4.2-.7-5.2c-.4321-1.2781-.3606-2.6729.2-3.9zm-.2 12.2s.6-1.7.8-2.1l1.2-2.4c-.0236.7586-.1934 1.5056-.5 2.2-.4055.8243-.9092 1.5965-1.5 2.3zm1.6 11.4c-.7-1.1-.1-3.1-.1-3.1.3966.9778.7306 1.9798 1 3 .1649 1.0636.131 2.1487-.1 3.2-.004-1.0839-.279-2.1496-.8-3.1zm-1.1 5.8c-1.6.7-2.7 1.7-2.7 1.5s1.2-1.5 2.3-1.8 1.8-.8 1.8-.8.1.4-1.4 1.1zm.6 6.7c-.2987-.5131-.405-1.1157-.3-1.7 0-.2.5 0 .5.2-.2139.4691-.2835.9912-.2 1.5zm1.6-4.6c-.2046.7493-.3056 1.5232-.3 2.3 0 .4-.4-.1-.6-.2s0 .8 0 .9-.1-.5-.5-.7c-.161-.0616-.339-.0616-.5 0 .1-.2.1-.5.2-.7s2-4 1.7-5.5c.8 1 .4 2.9 0 3.9zm.7-7.7c-.333-.7537-.4706-1.5791-.4-2.4.7 1.3 1.4 2.5 2.2 3.7-.716-.2445-1.3428-.6972-1.8-1.3zm1.6-5.4c-.121 1.4238-.3891 2.8313-.8 4.2-.4373-.5776-.7215-1.2562-.8264-1.973s-.027-1.4484.2264-2.127c.4201-1.006.9218-1.9759 1.5-2.9 0 0-.1 1.8-.1 2.8zm-.5-2.5c-1.4.9-1.9 6.4-1.9 6.4-.3835-1.6751-.4176-3.4112-.1-5.1.7-2.6 3.6-6.7 3.6-6.7s.4 4.2-1.6 5.4zm3-13.4c.026-1.51-.108-3.0184-.4-4.5-.5-1-.3 2.9-.1 3.8.266 1.0531.467 2.1218.6 3.2l-.9-2.5c-.8-2.8-1.2-3.1-1.1-6.2 0 0 1.1.8 1.3.7s.6-.7.6-.7c.311.9017.479 1.8463.5 2.8-.1 1.2-.3 2.3-.5 3.4zm-.9-9c1.1 1.1.7 1.9 0 2.7-.75-.3358-1.379-.8945-1.8-1.6.4 1-.9 1.6-1.6 2.1s-.2-1.9-.9-2.6c.0955.5436.0221 1.1034-.2104 1.6041-.2324.5006-.6127.918-1.0896 1.1959-1.2-.5.1-2.6-.7-2.5s-.8 2.3-2.2 2.9.2-1.8.6-2.7c-.4.8-1.9 2.1-2 3.4-.513-.6957-.793-1.5357-.8-2.4.0442.3647.004.7346-.1173 1.0814-.1214.3467-.3207.661-.5827.9186-.342-.3544-.6003-.7808-.756-1.248-.1558-.4672-.205-.9634-.144-1.452.0616.3957-.0275.8002-.2497 1.1335s-.5613.5711-.9503.6665c-.2419-.2867-.3983-.6357-.4514-1.007-.053-.3713-.0006-.7501.1514-1.093-.6582.5117-1.4663.7928-2.3.8-.0057-.4711.0895-.938.2792-1.3692.1898-.4312.4696-.8168.8208-1.1308-.6151.7008-1.4106 1.2196-2.3 1.5-.3-1.2.6-2.4 2.8-3.6-.6638.3533-1.3693.6221-2.1.8.1063-.5594.3308-1.0896.6584-1.5552.3277-.4656.751-.8559 1.2416-1.1448-.5703.3778-1.2209.6175-1.9.7 0-.6.7-1.3 2-2.1-.1952.1134-.4135.1813-.6386.1986s-.4512-.0164-.6614-.0986c.2973-.6213.7463-1.1577 1.3055-1.5597.5593-.402 1.2109-.6566 1.8945-.7403h-.8c.4535-.4985 1.0111-.8912 1.6332-1.1504s1.2935-.3786 1.9668-.3496c-.3-.3-.7-.4-1.5 0 .1375-.3989.4183-.7323.7879-.9356.3697-.2033.8017-.2619 1.2121-.1644 0 0-.1-.4 1-.7.6067-.1011 1.2076-.2346 1.8-.4h.6s-1.2.2-1.5 0 .1 0 .9-.2c.6313-.2667 1.3284-.3365 2-.2v-.3c-.1-.2-.2.1.7 0h3c.378-.0249.755.0438 1.1.2h.8l.6.2h.1c4.1.8 5.5 3.4 5.9 7 3.2 1.6 2.9 4.7 1 6.1-.2.1-.3-.4-.3-.5 1.9-3.2-4-2.7-6.9-4 2.9 1.4 5.7 2.8 6.3 5-.3.2-.6 0-.8-.2-2.9-1.9-4.9-1.8-6.8-.8m6.8 16.7c.1-.2 1.7 1.4 2 .7.182-.4101.284-.8515.3-1.3.499 1.2479 1.101 2.452 1.8 3.6 1.1 1.7 1.2 1.6 1.2 1.6-1.4 2.1-5.3-3.4-5.3-4.6zm8.2 4.2c-2.8-1.1-5.3-8.1-6.4-10.8.6.8 1.6 1.2 1.6-.2s2 4.8 3.1 6.7c.591 1.1824 1.368 2.2627 2.3 3.2 0 0 .4 1.5-.6 1.1zm4.4-5.1c-.3 2-3.4.5-4.5-.9-1.727-2.5593-3.074-5.3549-4-8.3 0 0 1.6.7 2.1.1.116-.7951.183-1.5967.2-2.4 1.2 4.4 2.9 8.4 6.2 11.5zm-.9-4.4c-2.5-3.6-4.2-9.7-4.2-9.7s1.5.4 1.4-.8.9-1 .9-1c.62 1.9237 1.389 3.796 2.3 5.6.948 2.1511 2.121 4.1959 3.5 6.1.9 1.5-1.8 2.9-3.9-.2zm9.5-1.5c-.562.1584-1.161.1232-1.7-.1-1-.3-3.1-2.5-4.5-4.5s-3.9-8.3-3.9-8.3c1.6-.1 2.5-.7 2.3-2.5 0 0 2 5.6 3.3 8.2 1.215 2.1787 2.656 4.2234 4.3 6.1.3.4.4.8.2 1.1zm5.2-2.3c-.8.3-3.3.7-5.7-3s-5-11.3-5-11.3 2.4-1.4 2.5-2.5c.716 2.615 1.584 5.186 2.6 7.7 1.297 2.8122 3.017 5.409 5.1 7.7.4.3 1.2 1.1.5 1.4zm2-3.6c-3.2-3.5-8.1-13.3-8.1-13.3 1.5 1.5 2.3 1.4 2.6.1 2.938 5.953 6.822 11.3903 11.5 16.1-1.1.6-2.7.7-6-2.9zm10.9 2.8c-1.7-.6-2.8-1.6-5.1-3.9s-9.9-12.8-9.9-12.8c2.6 1.2 3.8 1.1 3.9-.1-.2.4 3.9 5.1 7.3 8.7 1.2 1.3 7.6 7.1 7.8 7.5s-3.2.9-4 .6zm14.2-6.1c1.3 1.2 7.1 5.7 4.2 5-5.705-1.7288-11.205-4.0761-16.4-7-3.391-2.1128-6.485-4.6687-9.2-7.6 0 0 2.7.8 2.7.3s-.4-2.2.2-1.8 9.1 7.2 12.1 8c2.355.4939 4.553 1.5584 6.4 3.1zm14.8-.4c-1.7-.5-9.8-3.4-12.7-4.7s-7.4-2.3-11-3.4-8.2-4.5-8.2-4.5c2.5 1.1 3.8.7 3.9-.5 2.1 1.3 6.3 2.1 7.1 2.3s22.6 11.3 20.9 10.8z"/><path d="m104.4 22.0005c.3-.8 1.7-1.1 2.3-1.8-2-.5-3.5-2.8-6.1-1.9 1.1.1.9 2.6 3.9 2.7-.095.1467-.153.314-.171.4879-.017.1739.007.3494.071.5121zm-3.1-3.6c.509-.0836 1.031-.0139 1.5.2-.115.0404-.22.1066-.305.1936-.086.087-.15.1925-.189.3083s-.05.239-.034.36.06.2366.128.3381l.2.3c-.591-.4263-1.043-1.0177-1.3-1.7zm1.6 1.9c-.1 0-.1 0-.1-.1s0 .1.1.1h.3c.079.0143.16.0126.238-.005.078-.0175.152-.0506.218-.0972.065-.0466.12-.1058.162-.1742.042-.0683.07-.1443.082-.2236l-.3-.5c.002.1169-.036.231-.109.3224s-.176.1542-.291.1776c-.133 0-.26-.0527-.353-.1465-.094-.0937-.147-.2209-.147-.3535.023-.1147.086-.2175.178-.2906.091-.073.205-.1118.322-.1094h.1l-.5-.4c.9.5 1.8 1.3 1.8 2.2-.601-.0135-1.187-.186-1.7-.5"/><path d="m104.7 55.3008c0 .1.1.2.1.4l.7 1.1c0-.1.1-.2.1-.3l-.7-1.7c-.007.1848-.078.3614-.2.5z"/><path d="m104.8 47.3006c.724 1.4936 1.705 2.8477 2.9 4h.1c-.5-.9-2.1-3.3-2.9-4.6l-.8-1.3-.2-.3c.401.6875.704 1.4281.9 2.2z"/></g></g></g></g></svg>