<svg width="259" height="72" viewBox="0 0 259 72" fill="none" xmlns="http://www.w3.org/2000/svg">
<path d="M0.670455 71V1.18182H11.2045V61.9318H42.8409V71H0.670455ZM112.787 36.0909C112.787 43.5455 111.423 49.9545 108.696 55.3182C105.969 60.6591 102.23 64.7727 97.4801 67.6591C92.7528 70.5227 87.3778 71.9545 81.3551 71.9545C75.3097 71.9545 69.9119 70.5227 65.1619 67.6591C60.4347 64.7727 56.7074 60.6477 53.9801 55.2841C51.2528 49.9205 49.8892 43.5227 49.8892 36.0909C49.8892 28.6364 51.2528 22.2386 53.9801 16.8977C56.7074 11.5341 60.4347 7.42045 65.1619 4.55682C69.9119 1.67045 75.3097 0.22727 81.3551 0.22727C87.3778 0.22727 92.7528 1.67045 97.4801 4.55682C102.23 7.42045 105.969 11.5341 108.696 16.8977C111.423 22.2386 112.787 28.6364 112.787 36.0909ZM102.355 36.0909C102.355 30.4091 101.435 25.625 99.5938 21.7386C97.7756 17.8295 95.2756 14.875 92.0938 12.875C88.9347 10.8523 85.3551 9.84091 81.3551 9.84091C77.3324 9.84091 73.7415 10.8523 70.5824 12.875C67.4233 14.875 64.9233 17.8295 63.0824 21.7386C61.2642 25.625 60.3551 30.4091 60.3551 36.0909C60.3551 41.7727 61.2642 46.5682 63.0824 50.4773C64.9233 54.3636 67.4233 57.3182 70.5824 59.3409C73.7415 61.3409 77.3324 62.3409 81.3551 62.3409C85.3551 62.3409 88.9347 61.3409 92.0938 59.3409C95.2756 57.3182 97.7756 54.3636 99.5938 50.4773C101.435 46.5682 102.355 41.7727 102.355 36.0909Z" fill="white"/>
<path d="M173.17 23.2386C172.511 21.1705 171.625 19.3182 170.511 17.6818C169.42 16.0227 168.114 14.6136 166.591 13.4545C165.068 12.2727 163.33 11.375 161.375 10.7614C159.443 10.1477 157.318 9.84091 155 9.84091C151.068 9.84091 147.523 10.8523 144.364 12.875C141.205 14.8977 138.705 17.8636 136.864 21.7727C135.045 25.6591 134.136 30.4205 134.136 36.0568C134.136 41.7159 135.057 46.5 136.898 50.4091C138.739 54.3182 141.261 57.2841 144.466 59.3068C147.67 61.3295 151.318 62.3409 155.409 62.3409C159.205 62.3409 162.511 61.5682 165.33 60.0227C168.17 58.4773 170.364 56.2955 171.909 53.4773C173.477 50.6364 174.261 47.2955 174.261 43.4545L176.989 43.9659H157.011V35.2727H184.455V43.2159C184.455 49.0795 183.205 54.1705 180.705 58.4886C178.227 62.7841 174.795 66.1023 170.409 68.4432C166.045 70.7841 161.045 71.9545 155.409 71.9545C149.091 71.9545 143.545 70.5 138.773 67.5909C134.023 64.6818 130.318 60.5568 127.659 55.2159C125 49.8523 123.67 43.4886 123.67 36.125C123.67 30.5568 124.443 25.5568 125.989 21.125C127.534 16.6932 129.705 12.9318 132.5 9.84091C135.318 6.72727 138.625 4.35227 142.42 2.71591C146.239 1.05682 150.409 0.22727 154.932 0.22727C158.705 0.22727 162.216 0.784088 165.466 1.89772C168.739 3.01136 171.648 4.59091 174.193 6.63636C176.761 8.68182 178.886 11.1136 180.568 13.9318C182.25 16.7273 183.386 19.8295 183.977 23.2386H173.17ZM258.474 36.0909C258.474 43.5455 257.111 49.9545 254.384 55.3182C251.656 60.6591 247.918 64.7727 243.168 67.6591C238.44 70.5227 233.065 71.9545 227.043 71.9545C220.997 71.9545 215.599 70.5227 210.849 67.6591C206.122 64.7727 202.395 60.6477 199.668 55.2841C196.94 49.9205 195.577 43.5227 195.577 36.0909C195.577 28.6364 196.94 22.2386 199.668 16.8977C202.395 11.5341 206.122 7.42045 210.849 4.55682C215.599 1.67045 220.997 0.22727 227.043 0.22727C233.065 0.22727 238.44 1.67045 243.168 4.55682C247.918 7.42045 251.656 11.5341 254.384 16.8977C257.111 22.2386 258.474 28.6364 258.474 36.0909ZM248.043 36.0909C248.043 30.4091 247.122 25.625 245.281 21.7386C243.463 17.8295 240.963 14.875 237.781 12.875C234.622 10.8523 231.043 9.84091 227.043 9.84091C223.02 9.84091 219.429 10.8523 216.27 12.875C213.111 14.875 210.611 17.8295 208.77 21.7386C206.952 25.625 206.043 30.4091 206.043 36.0909C206.043 41.7727 206.952 46.5682 208.77 50.4773C210.611 54.3636 213.111 57.3182 216.27 59.3409C219.429 61.3409 223.02 62.3409 227.043 62.3409C231.043 62.3409 234.622 61.3409 237.781 59.3409C240.963 57.3182 243.463 54.3636 245.281 50.4773C247.122 46.5682 248.043 41.7727 248.043 36.0909Z" fill="#F7931E"/>
</svg>
